Coordinates
version=1
nRows=11
nColumns=40
inDegrees=yes

Units are S.I. units (second, meters, Newtons, ...)
Angles are in degrees.

endheader
time	pelvis_tilt	pelvis_list	pelvis_rotation	pelvis_tx	pelvis_ty	pelvis_tz	hip_flexion_r	hip_adduction_r	hip_rotation_r	knee_angle_r	knee_angle_r_beta	ankle_angle_r	subtalar_angle_r	mtp_angle_r	hip_flexion_l	hip_adduction_l	hip_rotation_l	knee_angle_l	knee_angle_l_beta	ankle_angle_l	subtalar_angle_l	mtp_angle_l	lumbar_extension	lumbar_bending	lumbar_rotation	arm_flex_r	arm_add_r	arm_rot_r	elbow_flex_r	pro_sup_r	wrist_flex_r	wrist_dev_r	arm_flex_l	arm_add_l	arm_rot_l	elbow_flex_l	pro_sup_l	wrist_flex_l	wrist_dev_l
     29.50000000	     -3.92318256	     -4.64450572	     -0.40141722	      0.94098074	      0.91768475	      0.59972266	     16.50679983	      7.61295823	     -3.80333691	     26.84130114	     26.84130114	     16.02322380	     -8.27833401	      0.31437449	     29.38496753	    -14.34864385	      6.77114479	     75.29126494	     75.29126494	     13.43278519	    -19.53108487	     21.95111963	    -10.90569839	      4.85298964	     -0.43169018	     28.20891352	    -19.97644952	     -9.95207891	     77.99440412	     45.40930288	      0.00000000	      0.00000000	     -1.55620126	     -9.30019925	      1.28441288	     28.88093304	     45.31865157	      0.00000000	      0.00000000
     29.52385714	     -3.49116256	     -4.67115922	      0.46282494	      0.93879658	      0.91506137	      0.60049589	     16.69724038	      7.68604252	     -4.01772638	     28.32930791	     28.32930791	     16.72481002	     -9.50845574	     -0.02660545	     29.88495031	    -14.64786866	      6.86161327	     73.17025806	     73.17025806	     14.31386618	    -19.57898703	     22.09443046	    -11.10323146	      4.84013202	     -0.36673829	     30.42179656	    -20.42101707	    -10.21215514	     79.54474851	     45.37742846	      0.00000000	      0.00000000	     -2.59847454	     -9.52765900	      1.28599894	     28.27648575	     45.30766540	      0.00000000	      0.00000000
     29.54771429	     -3.16796853	     -4.50807642	      1.36217758	      0.93632987	      0.91224998	      0.60114186	     17.10267990	      7.65003813	     -3.90372635	     29.99375366	     29.99375366	     17.40381647	    -11.41066654	     -0.16601786	     30.45451002	    -14.71241310	      6.79122455	     70.73603049	     70.73603049	     15.22920949	    -19.60906200	     22.51137688	    -11.25086732	      4.73824520	     -0.73758599	     32.73739656	    -20.12548085	    -10.09548175	     82.17765298	     45.29831101	      0.00000000	      0.00000000	     -3.72534555	     -9.83187285	      1.34282311	     27.61520368	     45.28954479	      0.00000000	      0.00000000
     29.57157143	     -2.85985050	     -4.40167815	      2.31670700	      0.93377204	      0.90982124	      0.60157807	     17.33986385	      7.64840522	     -3.93224633	     31.29800306	     31.29800306	     17.94562650	    -13.05732401	     -0.07192026	     30.94508730	    -14.73876414	      6.75343463	     67.95776709	     67.95776709	     16.07504117	    -19.61608911	     22.96037030	    -11.37242942	      4.68051323	     -0.96783684	     34.94426608	    -20.09588897	     -9.92431812	     84.83193234	     45.21801664	      0.00000000	      0.00000000	     -4.82413819	    -10.12590440	      1.42042930	     27.16393901	     45.26860546	      0.00000000	      0.00000000
     29.59542857	     -2.61950734	     -4.25724589	      3.31804165	      0.93105523	      0.90785314	      0.60161051	     17.49238867	      7.52727098	     -4.17680711	     32.31949839	     32.31949839	     18.53061702	    -14.28153427	      0.27874598	     31.39792159	    -14.59339799	      6.73240948	     64.87111239	     64.87111239	     16.65755642	    -19.61661115	     23.16691548	    -11.45622750	      4.61581353	     -1.04312333	     37.08071000	    -20.34622075	     -9.72869925	     87.51449065	     45.13852270	      0.00000000	      0.00000000	     -5.76542666	    -10.39393487	      1.59496076	     27.05365083	     45.23725517	      0.00000000	      0.00000000
     29.61928571	     -2.44690748	     -4.03974556	      4.30605025	      0.92817040	      0.90647637	      0.60119017	     17.58095864	      7.23188207	     -4.58551256	     33.11315079	     33.11315079	     19.14858858	    -14.99567377	      0.80273516	     31.73317597	    -14.25684956	      6.68441004	     61.49612241	     61.49612241	     16.85428865	    -19.59050319	     22.87486132	    -11.50026062	      4.53509939	     -0.94168180	     39.20353107	    -20.64874270	     -9.62935805	     89.73929219	     45.07960868	      0.00000000	      0.00000000	     -6.39835855	    -10.62064417	      1.94736249	     27.22344883	     45.18539876	      0.00000000	      0.00000000
     29.64314286	     -2.27768939	     -3.70707581	      5.21841817	      0.92516211	      0.90586713	      0.60041043	     17.53086217	      6.74856085	     -5.07935233	     33.67152332	     33.67152332	     19.56348646	    -15.43655320	      1.00491506	     31.84346112	    -13.72139495	      6.58642950	     57.89773441	     57.89773441	     16.86621144	    -19.53805051	     22.51169296	    -11.53316013	      4.32526785	     -0.67374018	     41.46943993	    -20.87532365	     -9.67661248	     91.08480521	     45.05134876	      0.00000000	      0.00000000	     -6.66837876	    -10.73877438	      2.20083048	     27.33311080	     45.14830330	      0.00000000	      0.00000000
     29.66700000	     -2.22439180	     -3.35660394	      6.12043430	      0.92205680	      0.90605114	      0.59924233	     17.36982752	      6.17647804	     -5.68332940	     33.80727856	     33.80727856	     19.86183912	    -15.55131302	      1.33453917	     31.86671086	    -13.03506741	      6.62723150	     54.07793367	     54.07793367	     16.37809652	    -19.44969357	     21.57769914	    -11.49824008	      4.11911702	     -0.53691564	     43.61375751	    -20.91150254	     -9.50223968	     92.55643389	     45.01280043	      0.00000000	      0.00000000	     -6.88818398	    -10.79767815	      2.61883470	     27.63338062	     45.08754698	      0.00000000	      0.00000000
     29.69085714	     -2.28721674	     -3.04996947	      6.97656402	      0.91888169	      0.90688143	      0.59776708	     17.13646935	      5.61781898	     -6.32883909	     33.58467814	     33.58467814	     20.16261613	    -15.42565529	      2.09703850	     31.76293801	    -12.39591226	      6.64761981	     49.98464256	     49.98464256	     14.81933828	    -19.31786523	     18.17961149	    -11.32845627	      3.98207605	     -0.25294044	     45.59402429	    -21.20427037	     -9.15681492	     93.60767338	     45.00155736	      0.00000000	      0.00000000	     -7.18753780	    -11.11241507	      4.66797858	     28.94824449	     44.82278826	      0.00000000	      0.00000000
     29.71471429	     -2.39942020	     -2.67865990	      7.74437889	      0.91568234	      0.90835167	      0.59602709	     16.75705772	      4.93945935	     -7.04326284	     33.02622541	     33.02622541	     20.08146389	    -15.10955570	      1.93085394	     31.52189333	    -11.61882080	      6.79677302	     45.90037036	     45.90037036	     13.43733310	    -19.07075869	     15.81304108	    -11.14503178	      3.75245182	     -0.02672478	     47.55495557	    -21.23469905	     -8.67692745	     94.53960269	     44.98510060	      0.00000000	      0.00000000	     -7.19846078	    -11.19536549	      6.24364036	     29.67599468	     44.65430850	      0.00000000	      0.00000000
     29.73857143	     -2.50363357	     -2.33700760	      8.44011116	      0.91254722	      0.91043747	      0.59410796	     16.19343236	      4.31785132	     -7.73303293	     32.15211918	     32.15211918	     19.91537002	    -14.69994717	      1.99357124	     31.17125358	    -10.83393515	      7.14004097	     42.01097290	     42.01097290	     12.80441162	    -18.52880475	     15.64414189	    -10.99246524	      3.50668757	      0.28097077	     49.35345964	    -21.17762997	     -8.49949501	     95.21322655	     44.96911632	      0.00000000	      0.00000000	     -6.91778373	    -10.96734757	      6.57868153	     29.98514372	     44.62381004	      0.00000000	      0.00000000
